# xmcd
#
# Track frame offsets: 
#        150
#        20732
#        46597
#        68493
#        112759
#        133141
#        146049
#        166332
#        209588
#        244908
#        265002
#        270207
#        294698
#        317606
#
# Disc length: 4525 seconds
#
# Revision: 1
# Processed by: cddbd v1.5.2PL0 Copyright (c) Steve Scherf et al.
# Submitted via: ExactAudioCopy v1.3
#
DISCID=c811ab0e
DTITLE=Fleetwood Mac - Before The Beginning - 1968-1970 Live and Demo Se
DTITLE=ssions -
DYEAR=2019
DGENRE=Blues
TTITLE0=Madison Blues (Version 1)
TTITLE1=Something Inside Of Me
TTITLE2=The Woman That I Love
TTITLE3=Worried Dream
TTITLE4=Dust My Blues
TTITLE5=Got To Move
TTITLE6=Trying So Hard To Forget
TTITLE7=Instrumental
TTITLE8=Have You Ever Loved A Woman
TTITLE9=Lazy Poker Blues
TTITLE10=Stop Messing Around
TTITLE11=I Loved Another Woman
TTITLE12=I Believe My Time Ain't Long (Version 1)
TTITLE13=Sun Is Shining
EXTD=
EXTT0=
EXTT1=
EXTT2=
EXTT3=
EXTT4=
EXTT5=
EXTT6=
EXTT7=
EXTT8=
EXTT9=
EXTT10=
EXTT11=
EXTT12=
EXTT13=
PLAYORDER=
